<svg xmlns="http://www.w3.org/2000/svg" width="23.967" height="18.5" viewBox="0 0 23.967 18.5"><path d="M15.771-16.75a.572.572,0,0,1,.1.009,19.456,19.456,0,0,1,4.792,1.485.559.559,0,0,1,.247.215A20.726,20.726,0,0,1,23.822-8.8a19.974,19.974,0,0,1,.56,7.139.572.572,0,0,1-.233.409,19.43,19.43,0,0,1-5.893,2.972.572.572,0,0,1-.634-.215A15.824,15.824,0,0,1,16.414-.457a.578.578,0,0,1-.064-.264.565.565,0,0,1,.007-.089,13.91,13.91,0,0,1-3.847.543A14.123,14.123,0,0,1,8.63-.815a.568.568,0,0,1,.008.095.576.576,0,0,1-.062.258A14.148,14.148,0,0,1,7.359,1.516l0,0a.574.574,0,0,1-.622.2A19.507,19.507,0,0,1,.843-1.249l-.01-.007a.582.582,0,0,1-.22-.4v-.006A19.9,19.9,0,0,1,4.086-15.047a.564.564,0,0,1,.244-.208,19.4,19.4,0,0,1,4.8-1.486.587.587,0,0,1,.1-.008.576.576,0,0,1,.495.283l0,.007c.164.29.318.59.459.894a17.6,17.6,0,0,1,2.305-.151,18.2,18.2,0,0,1,2.339.151c.139-.3.289-.6.448-.889A.57.57,0,0,1,15.771-16.75Zm-6.2,2.284-.152-.356c-.127-.3-.269-.593-.421-.881a18.4,18.4,0,0,0-4.142,1.307A18.911,18.911,0,0,0,1.592-1.941,18.5,18.5,0,0,0,6.731.677,13.166,13.166,0,0,0,7.466-.5a13.089,13.089,0,0,1-1.418-.708.577.577,0,0,1-.286-.5.577.577,0,0,1,.227-.457q.187-.14.34-.267a.579.579,0,0,1,.6-.08,13.374,13.374,0,0,0,5.584,1.243,13.147,13.147,0,0,0,5.544-1.24.574.574,0,0,1,.241-.053.573.573,0,0,1,.361.128c.115.095.228.184.339.266a.577.577,0,0,1,.231.46.576.576,0,0,1-.279.492l0,0A12.312,12.312,0,0,1,17.525-.5c.225.4.471.8.733,1.178A18.433,18.433,0,0,0,23.4-1.941a18.934,18.934,0,0,0-.548-6.594,19.694,19.694,0,0,0-2.716-5.86A18.457,18.457,0,0,0,16-15.7c-.15.288-.289.582-.415.879l-.152.357-.383-.058a17.164,17.164,0,0,0-2.568-.193,16.7,16.7,0,0,0-2.533.193ZM8.691-9.441a2.451,2.451,0,0,1,1.752.749,2.9,2.9,0,0,1,.812,2.069,2.7,2.7,0,0,1-2.564,2.81A2.7,2.7,0,0,1,6.127-6.627,2.7,2.7,0,0,1,8.691-9.441Zm0,4.628a1.705,1.705,0,0,0,1.564-1.814v-.007a1.9,1.9,0,0,0-.524-1.356,1.459,1.459,0,0,0-1.04-.451A1.705,1.705,0,0,0,7.127-6.627,1.705,1.705,0,0,0,8.691-4.813Zm7.632-4.628a2.451,2.451,0,0,1,1.752.749,2.9,2.9,0,0,1,.812,2.069,2.954,2.954,0,0,1-.723,1.963,2.438,2.438,0,0,1-1.841.847,2.7,2.7,0,0,1-2.564-2.814A2.7,2.7,0,0,1,16.323-9.441Zm0,4.628a1.685,1.685,0,0,0,1.564-1.814v-.007a1.9,1.9,0,0,0-.524-1.356,1.459,1.459,0,0,0-1.04-.451,1.705,1.705,0,0,0-1.564,1.814A1.705,1.705,0,0,0,16.323-4.813Z" transform="translate(-0.516 16.75)" fill="#073045"/></svg>